<svg width="600" height="400" viewBox="0 0 600 400" xmlns="http://www.w3.org/2000/svg">
    <!-- Фон -->
    <rect width="100%" height="100%" fill="#FFB6C1"/>

    <!-- Большое сердце -->
    <path d="M300 200 Q 350 100 450 150 T 500 250 Q 400 350 300 400 Q 200 350 100 250 T 150 150 Q 250 100 300 200 Z" fill="#FF3366" stroke="#CC0033" stroke-width="5"/>

    <!-- Маленькие сердца -->
    <path d="M250 80 Q 270 50 300 70 T 330 120 Q 310 150 280 160 Q 260 140 250 120 Z" fill="#FF6699"/>
    <path d="M400 60 Q 420 30 450 50 T 470 100 Q 450 130 420 140 Q 400 120 400 100 Z" fill="#FF6699"/>

    <!-- Анимация для маленьких сердец -->
    <animateTransform attributeName="transform" type="translate" from="0 0" to="0 -10" dur="1.5s" repeatCount="indefinite"/>

    <!-- Текст -->
    <text x="50%" y="55%" font-size="36" font-weight="bold" fill="white" text-anchor="middle" font-family="Arial">
        С Днём Святого Валентина! 💖
    </text>
</svg>