<?xml version="1.0" encoding="utf-8" ?>
<svg xmlns="http://www.w3.org/2000/svg" xmlns:xlink="http://www.w3.org/1999/xlink" width="512" height="512">
	<path fill="#3A3A3A" d="M460.982 106.605C461.882 106.819 462.726 107.257 463.526 107.714C466.073 109.169 474.023 115.129 474.379 118.056C474.476 118.846 474.201 119 473.729 119.585C470.924 118.019 468.953 114.877 466.532 112.736C464.789 111.195 462.544 110.33 460.793 108.814C460.276 108.366 460.148 108.118 460.133 107.45L460.982 106.605Z"/>
	<path d="M476.899 73.1117C480.117 73.0335 489.252 72.3109 491.82 73.355C492.129 73.8798 492.117 73.8982 492.042 74.5056C491.075 75.4888 488.856 75.2262 487.562 75.2447C482.588 75.2933 477.323 75.9802 472.387 75.4246C471.993 75.1424 471.567 74.9118 471.343 74.4661C471.217 74.2163 471.259 74.2638 471.361 74.0094C472.753 72.9947 475.241 73.1694 476.899 73.1117Z"/>
	<path fill="#3A3A3A" d="M388.7 111.704C388.858 111.706 389.016 111.692 389.173 111.71C389.817 111.785 389.945 111.902 390.317 112.377C390.23 113.032 390.231 113.131 389.734 113.602C388.002 115.244 385.885 116.589 384.05 118.135C381.354 120.406 378.969 122.954 376.607 125.561C376.379 125.535 375.968 125.501 375.761 125.426C375.181 125.217 375.119 124.963 374.938 124.442C375.884 120.674 385.267 113.762 388.7 111.704Z"/>
	<path d="M376.146 78.3016C376.525 78.2443 377.001 78.1402 377.381 78.1815C378.022 78.2512 378.405 78.4842 378.854 78.9205C378.784 79.4077 378.892 79.3638 378.576 79.6255C375.398 82.2522 364.256 82.351 360.19 82.1843C358.953 82.0858 357.997 81.9682 357.028 81.1416L357.007 80.5927C358.687 79.7009 366.29 79.8376 368.615 79.5789C371.16 79.2956 373.644 78.8428 376.146 78.3016Z"/>
	<path fill="#3A3A3A" d="M376.668 27.0876C378.528 27.7267 379.18 29.6965 380.289 31.1692C381.74 33.0958 383.324 34.9975 385.025 36.7101C386.619 38.3155 388.408 39.8329 389.817 41.6034C389.932 42.3631 389.794 42.5011 389.471 43.1756C388.968 43.1191 388.439 43.0498 387.985 42.8127C385.158 41.3377 376.503 31.7713 376.081 28.7122C375.971 27.9098 376.229 27.7179 376.668 27.0876Z"/>
	<path fill="#3A3A3A" d="M432.729 116.329L433.395 116.656C433.861 117.176 433.983 117.647 434.087 118.319C434.608 121.685 434.828 135.814 432.944 138.294C432.556 138.205 432.202 138.063 431.83 137.924C431.613 137.651 431.478 137.422 431.441 137.067C431.119 133.991 431.809 130.418 431.906 127.281C432.001 124.203 431.557 120.672 431.997 117.667C432.083 117.081 432.35 116.766 432.729 116.329Z"/>
	<path fill="#3A3A3A" d="M467.646 26.1997C467.847 26.2879 468.176 26.423 468.349 26.5444C468.867 26.9086 468.879 27.0983 468.945 27.6747C466.979 30.5903 463.881 33.0029 461.535 35.6609C459.462 38.0108 457.7 40.692 455.483 42.9015C454.755 42.5098 454.446 42.4664 454.079 41.7066C454.596 38.1542 464.928 28.4166 467.646 26.1997Z"/>
	<path fill="#3A3A3A" d="M424.194 5.84484C424.406 5.87581 424.812 5.92482 425.003 6.00048C425.539 6.2129 425.671 6.57525 425.769 7.10861C426.237 9.6647 426.278 24.7809 425.822 27.3164C425.734 27.8001 425.511 28.1503 425.244 28.5531C425.039 28.5427 424.678 28.5341 424.488 28.4793C423.949 28.3238 423.741 28.0296 423.605 27.502C423.136 25.6758 423.236 9.559 423.609 7.1803C423.691 6.65802 423.916 6.28368 424.194 5.84484Z"/>
	<path fill="#3A3A3A" d="M25.6702 69.2499C25.2687 68.6054 24.8893 68.2043 24.8876 67.4155C24.8796 63.5945 29.5855 57.2352 32.1954 54.6067C38.0639 48.6961 47.4336 44.2522 55.8783 44.4312C57.2891 44.4611 58.4297 44.5985 59.4467 45.6236C58.9297 46.3126 58.8874 46.5668 57.9929 46.746C55.4066 47.264 52.6739 47.2196 50.0669 47.7179C43.1314 49.0435 36.049 53.34 31.7654 58.9607C29.8011 61.5381 27.5101 67.8385 25.6702 69.2499Z"/>
	<path fill="#3A3A3A" d="M57.4481 138.938C58.0974 137.813 59.1999 137.774 60.3578 137.546C71.0061 135.454 80.4762 132.511 90.2749 127.833C93.2849 126.396 99.3685 122.233 102.134 121.597C102.919 121.417 103.23 121.828 103.844 122.244C102.196 124.768 98.8929 126.189 96.2852 127.575C86.9722 132.526 76.9967 136.679 66.639 138.833C64.3907 139.301 59.7545 140.495 57.7126 139.132C57.6217 139.071 57.5363 139.003 57.4481 138.938Z"/>
	<path fill="#00A4ED" d="M100.479 96.609C104.618 95.9272 109.246 96.4428 112.718 99.0133C113.851 99.8518 114.431 100.767 114.729 102.126C114.637 102.507 114.561 102.909 114.43 103.28C115.484 105.799 115.215 109.072 114.203 111.549C112.092 116.719 107.749 118.738 103.844 122.244C103.23 121.828 102.919 121.417 102.134 121.597C99.3685 122.233 93.2849 126.396 90.2749 127.833C80.4762 132.511 71.0061 135.454 60.3578 137.546C59.1999 137.774 58.0974 137.813 57.4481 138.938C54.7608 139.074 51.8895 138.918 49.4994 137.558C47.8168 136.601 46.5973 135.099 46.1647 133.199C44.9647 127.929 48.3728 125.163 50.8524 121.247C50.892 121.184 50.9303 121.121 50.9692 121.058C53.204 119.299 55.3163 117.369 57.6642 115.761C64.5807 111.026 72.9869 107.789 80.7525 104.764C84.3872 103.328 88.0687 101.993 91.726 100.613C91.7503 100.567 91.7773 100.521 91.7989 100.474C91.9519 100.134 91.9595 100.058 92.1225 99.7739C93.1327 98.0119 98.6399 97.0602 100.479 96.609Z"/>
	<path fill="#3A3A3A" d="M100.479 96.609C104.618 95.9272 109.246 96.4428 112.718 99.0133C113.851 99.8518 114.431 100.767 114.729 102.126C114.637 102.507 114.561 102.909 114.43 103.28C112.479 102.973 110.737 100.902 108.982 99.9151C104.677 97.4936 100.161 99.4362 95.8295 100.59C94.274 101.005 93.2197 101.473 91.726 100.613C91.7503 100.567 91.7773 100.521 91.7989 100.474C91.9519 100.134 91.9595 100.058 92.1225 99.7739C93.1327 98.0119 98.6399 97.0602 100.479 96.609Z"/>
	<path fill="#FEFEFE" d="M99.8862 105.301C101.608 105.156 102.7 105.35 104.21 106.251C105.347 106.929 106.041 108.044 106.281 109.333C106.65 111.323 106.069 113.312 104.959 114.966C100.165 122.107 85.2183 123.782 77.1879 125.514C76.2275 125.781 75.5923 125.874 74.6118 125.663C75.7319 124.481 94.2903 119.103 98.6661 116.431C100.351 115.401 102.739 113.465 103.033 111.354C103.405 108.673 100.103 108.108 98.9205 106.351C99.0981 105.631 99.2923 105.693 99.8862 105.301Z"/>
	<path fill="#FCE63E" d="M95.8619 74.3546C96.3755 74.7022 96.7507 74.8544 96.9215 75.4985C97.0061 75.8176 96.9182 76.3189 96.8967 76.6519L96.8749 77.0232C97.1432 78.8626 97.817 80.5719 98.2875 82.3632C99.4418 86.7579 100.698 92.0366 100.479 96.609C98.6399 97.0602 93.1327 98.0119 92.1225 99.7739C91.9595 100.058 91.9519 100.134 91.7989 100.474C91.7773 100.521 91.7503 100.567 91.726 100.613C88.0687 101.993 84.3872 103.328 80.7525 104.764C72.9869 107.789 64.5807 111.026 57.6642 115.761C55.3163 117.369 53.204 119.299 50.9692 121.058C43.6094 115.996 40.7718 114.114 35.5576 106.664C37.1712 104.659 38.6113 102.517 40.2422 100.518Q41.7625 98.6469 43.4282 96.9041Q45.094 95.1612 46.8944 93.5579Q48.6948 91.9546 50.6183 90.5011Q52.5418 89.0477 54.5758 87.7535C56.4575 86.5362 63.4234 83.1384 64.4614 82.0319C64.6496 81.7281 64.8291 81.4259 65.0722 81.1614C66.0913 80.0526 68.4822 79.3363 69.8979 78.8686C78.4562 76.0413 86.9444 75.1587 95.8619 74.3546Z"/>
	<path fill="#FEFEFE" d="M76.688 86.1611C79.6147 85.627 83.9949 84.4293 86.824 85.4036L87.1578 85.8056C87.0808 86.1511 87.148 86.3447 86.8002 86.5207C85.3178 87.2708 81.2326 87.3469 79.5834 87.2727C78.7792 87.3674 77.98 87.4881 77.1686 87.4629C74.8685 87.7192 72.5 88.7577 70.2692 88.8929C63.7134 91.0817 57.4309 94.035 52.6805 99.213C51.0441 100.997 49.7306 103.169 47.7809 104.628C47.702 104.687 47.6212 104.743 47.5413 104.801C52.5596 96.1392 58.858 91.5717 68.2208 88.2267C70.8354 87.4689 73.4422 86.8536 76.1077 86.3135L76.688 86.1611Z"/>
	<path fill="#3A3A3A" d="M95.8619 74.3546C96.3755 74.7022 96.7507 74.8544 96.9215 75.4985C97.0061 75.8176 96.9182 76.3189 96.8967 76.6519L96.8749 77.0232C93.5959 76.2452 77.1425 78.727 73.7942 80.2887L73.4758 80.3698C71.0835 81.0028 67.9603 82.9433 65.5201 82.6756L64.4614 82.0319C64.6496 81.7281 64.8291 81.4259 65.0722 81.1614C66.0913 80.0526 68.4822 79.3363 69.8979 78.8686C78.4562 76.0413 86.9444 75.1587 95.8619 74.3546Z"/>
	<path fill="#00A4ED" d="M59.4467 45.6236C71.5036 47.3814 81.8569 53.0766 89.1852 62.9687C91.5689 66.1862 94.5643 70.5075 95.8619 74.3546C86.9444 75.1587 78.4562 76.0413 69.8979 78.8686C68.4822 79.3363 66.0913 80.0526 65.0722 81.1614C64.8291 81.4259 64.6496 81.7281 64.4614 82.0319C63.4234 83.1384 56.4575 86.5362 54.5758 87.7535Q52.5418 89.0477 50.6183 90.5011Q48.6948 91.9546 46.8944 93.5579Q45.094 95.1612 43.4282 96.9041Q41.7625 98.6469 40.2422 100.518C38.6113 102.517 37.1712 104.659 35.5576 106.664C34.2465 104.68 33.0884 102.539 31.999 100.424C27.6641 92.006 22.678 78.6263 25.6702 69.2499C27.5101 67.8385 29.8011 61.5381 31.7654 58.9607C36.049 53.34 43.1314 49.0435 50.0669 47.7179C52.6739 47.2196 55.4066 47.264 57.9929 46.746C58.8874 46.5668 58.9297 46.3126 59.4467 45.6236Z"/>
	<path fill="#FEFEFE" d="M49.649 55.7882L50.2835 55.799C49.328 56.8022 47.2316 57.4347 46.0013 58.2074C42.0959 60.66 37.6896 65.0465 35.3718 69.0513C32.8511 73.4067 32.9686 78.7708 34.4982 83.4509C35.0381 85.1029 35.9205 86.7651 36.3211 88.4413C36.4646 89.0415 36.3474 89.0869 36.0329 89.5918C34.3929 88.1709 33.3181 85.6205 32.7163 83.5586C31.1115 78.0612 31.0299 72.2273 33.9149 67.136C37.3442 61.0844 43.0999 57.6044 49.649 55.7882Z"/>
	<path fill="#FCE63E" d="M430.968 47.8526C432.237 47.7069 433.515 47.743 434.789 47.8066C440.726 48.1034 446.113 50.9136 450.042 55.3154C454.577 60.3962 457.177 67.6324 456.789 74.4366C456.374 81.6881 452.713 88.7113 447.278 93.4856C440.935 99.0575 433.312 101.413 424.938 100.898C417.929 100.261 410.808 97.8087 405.578 92.9734C401.32 89.0359 398.493 84.437 398.302 78.4999C398.082 71.6395 401.926 64.2802 406.545 59.4114C412.547 53.0868 422.171 48.1268 430.968 47.8526Z"/>
	<path fill="#FEFEFE" d="M421.909 58.5324L422.103 58.5194L422.279 58.7189C421.737 59.3969 421.011 59.7271 420.274 60.1542C416.899 62.1099 413.606 63.7253 411.993 67.5316C410.426 71.2278 410.752 76.4028 412.432 80.0218C413.353 82.0076 414.703 83.7961 415.465 85.8609C415.692 86.4783 415.744 86.7851 415.475 87.3794C414.681 87.5037 414.484 87.3605 413.758 87.0605C411.155 84.7054 409.308 82.0854 408.217 78.7211C407.006 74.9868 407.041 71.1882 408.883 67.6397C411.619 62.3725 416.52 60.2378 421.909 58.5324Z"/>
	<path fill="#3A3A3A" d="M66.6899 336.608C73.5007 336.202 82.068 334.725 87.6175 339.747C89.9141 341.825 90.7825 344.507 91.1756 347.478C88.319 349.821 85.0575 350.232 81.5635 350.925C91.3635 360.291 102.34 366.379 113.729 373.41C130.758 371.083 158.077 362.824 174.263 366.277C178.241 367.126 181.875 368.924 185.1 371.386C191.836 376.528 200.013 386.904 201.1 395.52C201.34 397.423 201.192 399.232 200.938 401.124C200.099 404.514 198.308 406.511 195.729 408.69C195.782 413.52 195.431 418.314 191.914 422.011Q191.497 422.441 191.04 422.827Q190.583 423.213 190.089 423.552Q189.595 423.89 189.07 424.178Q188.546 424.465 187.995 424.699Q187.444 424.933 186.872 425.111Q186.3 425.288 185.714 425.408Q185.128 425.528 184.532 425.588Q183.937 425.649 183.338 425.65C179.834 425.679 176.869 424.233 174.393 421.833C173.742 423.09 173.095 424.354 172.299 425.527C170.043 428.851 166.676 431.726 162.618 432.426C160.409 432.807 158.131 432.524 156.278 431.195C150.145 426.795 153.355 418.186 152.398 411.929C151.266 404.524 145.29 399.298 138.606 396.697C120.031 389.467 84.8478 393.993 64.6939 395.962C53.91 397.016 42.5259 398.596 31.7071 397.516C26.0025 396.947 20.4088 395.324 15.7581 391.863C11.3246 388.564 8.29504 383.96 7.50686 378.448C6.48074 371.271 8.86748 363.685 13.2054 357.961C24.9501 342.462 48.6374 339.059 66.6899 336.608ZM81.5635 350.925C76.8317 351.659 72.7274 353.17 69.79 357.15C67.8766 359.742 66.9037 363.092 67.441 366.3C67.8971 369.024 69.4999 371.269 71.7378 372.837C79.8759 378.539 104.033 375.132 113.729 373.41C102.34 366.379 91.3635 360.291 81.5635 350.925Z"/>
	<path fill="#FEFEFE" d="M157.557 378.235C158.664 378.224 159.832 378.635 160.883 378.96C165.316 380.33 169.992 382.454 172.204 386.8C174.689 391.684 174.227 404.743 172.568 409.917C172.387 410.259 172.151 410.433 171.865 410.688C169.254 409.819 170.766 393.52 170.126 390.272C168.331 381.164 159.856 381.75 157.762 378.582C157.688 378.47 157.626 378.351 157.557 378.235Z"/>
	<path fill="#FEFEFE" d="M47.6161 354.217L47.8462 354.639C46.6555 356.615 43.4956 358.414 41.6895 359.953C39.5256 361.796 36.6431 364.37 36.4938 367.404C36.33 370.731 40.2051 376.181 42.3669 378.635Q43.0744 379.443 43.8706 380.164Q44.6667 380.885 45.5409 381.509Q46.4151 382.132 47.3556 382.651Q48.2961 383.17 49.2902 383.576C56.8548 386.706 70.3776 386.867 78.6889 386.334C84.2715 385.975 89.8731 385.036 95.4712 385.429L95.8879 385.947L95.8072 386.496C95.1975 387.113 94.5893 387.302 93.7797 387.579C83.9843 390.662 71.1101 390.184 60.8858 389.295C53.3668 388.642 45.7214 386.971 40.6914 380.901C38.1521 377.837 34.2438 370.541 34.7247 366.624C35.1987 362.763 44.4853 356.699 47.6161 354.217Z"/>
	<path fill="#3A3A3A" d="M333.166 350.851C339.883 352.833 345.037 356.02 348.439 362.338C352.346 369.594 352.76 379.183 350.437 387.011Q350.357 387.282 350.266 387.549C356.269 394.062 359.776 400.985 360.619 409.919C366.095 405.41 371.918 401.465 379.339 402.129C382.874 402.445 386.244 403.941 388.574 406.672C390.728 409.197 391.573 412.479 391.243 415.75C390.394 424.155 382.759 430.463 376.595 435.408C374.104 437.407 371.504 439.347 368.803 441.052C375.313 442.551 381.802 445.228 385.464 451.14C387.93 455.122 388.382 459.814 387.279 464.313C384.792 474.453 375.817 482.722 367.166 487.872C355.164 495.017 339.382 498.014 325.734 494.483C319.09 492.764 311.982 489.05 308.463 482.898C305.034 476.901 306.161 469.779 307.948 463.441C308.831 460.309 309.851 457.092 311.264 454.161C306.408 451.274 302.189 446.95 300.785 441.329C299.635 436.726 300.802 432.267 303.224 428.286C307.326 421.546 313.855 416.711 317.522 409.635C309.772 404.953 302.756 404.168 293.944 406.378C293.192 406.566 292.459 406.802 291.728 407.06C286.576 407.818 280.863 411.046 276.072 413.175C273.14 410.744 270.877 407.509 270.523 403.62Q270.455 402.853 270.468 402.084C270.485 401.439 270.534 400.804 270.645 400.168C270.943 398.458 271.625 396.845 272.777 395.535C277.768 389.86 291.069 385.848 298.576 384.301C301.107 383.78 306.353 383.607 308.216 382.129C310.961 379.95 313.146 376.254 315.323 373.487C321.252 365.954 326.997 358.184 333.166 350.851Z"/>
	<path fill="#FEFEFE" d="M316.46 392.335C323.16 392.143 329.223 394.137 334.26 398.646C338.464 402.409 341.284 407.579 342.583 413.038C348.564 438.171 323.372 455.959 324.494 469.092C325.013 475.177 331.023 478.764 336.034 480.943C337.426 481.549 339.524 482.151 340.637 483.161C340.97 483.463 340.868 483.734 340.892 484.152C337.254 483.559 333.306 481.774 330.219 479.779C326.18 477.168 322.538 472.875 322.83 467.784C323.086 463.309 325.558 459.303 327.663 455.476C334.435 443.16 343.421 429.342 340.186 414.63C338.186 405.539 331.029 397.305 321.801 395.093C320.137 394.694 316.906 394.98 315.585 393.949C315.291 393.719 315.34 393.552 315.282 393.219C315.685 392.654 315.813 392.614 316.46 392.335Z"/>
	<path fill="#00A4ED" d="M35.9377 446.35C40.429 445.598 48.4121 446.373 53.1957 446.625L74.9825 447.705Q102.693 448.873 130.353 450.914C156.673 452.877 182.984 455.369 209.391 455.862Q227.819 456.143 246.199 454.771C252.964 454.215 259.547 452.62 266.379 452.762C268.823 452.813 271.209 453.593 273.439 454.549C276.453 455.841 278.658 458.734 279.809 461.737C281.671 466.592 281.539 472.551 279.365 477.268C274.878 487.003 263.421 492.992 253.813 496.536C245.837 499.656 236.892 501.32 228.471 502.723C169.851 512.488 109.38 499.821 52.7571 484.737C44.354 482.499 25.7915 478.666 19.5234 474.128C16.689 472.077 14.8249 469.631 14.314 466.063C13.6977 461.757 15.3308 457.551 17.9625 454.208C22.4392 448.521 29.1262 447.138 35.9377 446.35Z"/>
	<path fill="#3A3A3A" d="M437.946 275.33C418.94 271.081 408.294 262.919 396.009 248.297C393.12 244.858 389.859 241.125 387.478 237.326C386.349 235.525 385.683 233.552 386.206 231.427C386.907 228.579 389.453 226.669 391.876 225.284C399.557 220.892 408.871 220.189 417.492 219.212C443.438 216.272 464.045 215.768 489.431 222.927C493.971 224.207 501.608 226.408 504.027 230.777C504.984 232.507 504.911 234.407 504.29 236.238C500.475 247.481 476.973 264.972 466.258 269.962C461.197 272.32 456.043 273.905 450.529 274.762C459.998 276.434 467.744 280.213 473.397 288.237Q474.24 289.444 474.978 290.718Q475.716 291.993 476.344 293.325Q476.972 294.657 477.485 296.037Q477.999 297.417 478.393 298.836Q478.788 300.254 479.061 301.701Q479.335 303.148 479.485 304.613Q479.635 306.078 479.661 307.55Q479.687 309.023 479.589 310.492C489.141 318.474 494.164 327.391 495.318 339.922C496.892 356.999 490.567 374.173 479.705 387.232C469.613 399.367 454.947 407.867 439.123 409.307C423.825 410.7 407.958 406.271 396.122 396.336C374.991 378.598 373.846 340.979 340.631 340.518C343.406 334.25 348.678 328.005 351.541 321.555C365.398 322.759 376.19 332.208 384.757 342.412C398.313 358.557 410.593 381.324 434.072 383.447C441.373 384.107 448.201 382.218 453.854 377.475C459.982 372.333 462.673 365.798 463.625 358.013C455.813 358.83 429.421 360.405 423.785 355.697C422.919 354.974 422.245 353.956 422.165 352.808C422.028 350.851 422.654 348.831 424.021 347.409C428.353 342.9 438.101 341.969 444.019 341.185C431.995 339.956 419.064 337.359 411.061 327.421Q410.589 326.825 410.146 326.207Q409.703 325.588 409.291 324.949Q408.879 324.31 408.499 323.651Q408.119 322.992 407.771 322.316Q407.423 321.64 407.109 320.947Q406.795 320.255 406.514 319.548Q406.234 318.841 405.989 318.121Q405.744 317.401 405.534 316.67Q405.324 315.939 405.15 315.198Q404.976 314.458 404.838 313.71Q404.7 312.962 404.599 312.208Q404.498 311.455 404.434 310.697Q404.37 309.939 404.343 309.179Q404.316 308.419 404.326 307.658Q404.336 306.898 404.383 306.139Q404.43 305.38 404.514 304.624C405.446 296.38 409.888 289.485 416.317 284.386Q417.488 283.476 418.717 282.645Q419.946 281.815 421.227 281.067Q422.507 280.319 423.835 279.657Q425.162 278.995 426.53 278.422Q427.898 277.849 429.301 277.368Q430.704 276.887 432.136 276.499Q433.568 276.111 435.022 275.819Q436.476 275.526 437.946 275.33ZM440.385 220.113Q428.037 220.834 415.752 222.268C410.609 222.862 405.347 223.354 400.37 224.842C396.926 225.871 393.845 227.293 390.972 229.456C394.593 231.492 398.189 233.118 402.226 234.148C410.361 236.225 419.035 236.325 427.381 236.693Q439.344 237.22 451.312 237.602C466.723 238.307 486.679 237.861 500.689 230.699C484.328 221.587 458.867 219.332 440.385 220.113ZM394.765 242.188C398.729 242.729 402.735 244.426 406.564 245.606C411.068 246.993 415.864 248.135 420.502 248.978C439.199 252.38 458.211 252.65 476.698 247.822C483.83 245.959 490.761 243.16 497.951 241.643C500.359 239.308 501.837 236.224 502.358 232.935C495.175 235.804 488.06 237.997 480.378 239.045C465.288 241.105 449.793 240.026 434.637 239.414C423.196 238.952 406.704 239.349 396.229 234.918C393.874 233.921 391.669 232.76 389.554 231.323C388.96 231.599 388.898 231.746 388.527 232.3C388.258 234.036 389.217 235.445 390.198 236.8C391.563 238.685 393.146 240.448 394.737 242.143C394.749 242.156 394.756 242.173 394.765 242.188ZM445.66 343.605C440.092 343.95 429.404 345.294 425.409 349.65C424.833 350.278 424.263 351.082 424.397 351.985C424.55 353.009 425.403 353.761 426.252 354.248C429.692 356.216 439.261 356.4 443.347 356.479C450.149 356.59 456.76 356.209 463.514 355.416C462.905 352.059 462.374 348.791 460.669 345.777C456.378 343.843 450.322 343.278 445.66 343.605ZM456.157 339.318C453.25 339.942 450.38 340.333 447.443 340.769C448.803 340.888 450.214 340.935 451.562 341.132C454.111 341.5 456.701 341.822 459.181 342.532C458.399 341.575 457.261 339.8 456.157 339.318Z"/>
	<path fill="#FEFEFE" d="M482.997 341.952C483.075 341.978 483.155 341.998 483.23 342.029C483.764 342.246 483.945 342.531 484.121 343.076C486.06 349.097 480.315 362.615 477.559 368.253C470.421 382.86 455.627 393.039 440.531 398.15C431.612 401.17 421.806 402.11 413.148 397.753C406.924 394.622 402.822 389.364 400.684 382.808C400.349 381.601 399.79 380 400.074 378.764C400.186 378.277 400.1 378.466 400.58 378.15C401.081 378.312 401.286 378.349 401.63 378.77C403.72 381.321 404.499 383.895 407.215 386.768C409.945 389.655 413.292 392.257 416.894 393.954C424.897 397.725 433.797 396.629 441.864 393.636Q445.907 392.114 449.712 390.066Q453.516 388.018 457.013 385.481C465.473 379.357 478.37 365.865 481.228 355.73C481.902 353.339 482.38 350.856 482.461 348.367C482.512 346.797 482.078 343.447 482.802 342.198C482.855 342.108 482.932 342.034 482.997 341.952Z"/>
	<path fill="#FCE63E" d="M394.765 242.188C398.729 242.729 402.735 244.426 406.564 245.606C411.068 246.993 415.864 248.135 420.502 248.978C439.199 252.38 458.211 252.65 476.698 247.822C483.83 245.959 490.761 243.16 497.951 241.643C491.71 250.233 476.66 261.885 467.223 266.687C461.896 269.398 456.159 271.423 450.239 272.335C436.906 274.39 424.461 270.011 413.77 262.138C410.209 259.515 395.731 246.226 394.765 242.188Z"/>
	<path fill="#F33055" d="M200.802 151.563C202.678 139.359 208.144 128.534 216.518 119.475C228.811 106.174 247.918 97.7124 265.992 97.013C292.193 95.9991 315.806 105.936 334.823 123.808C351.084 139.091 362.274 160.424 368.02 181.845C369.114 185.923 370.473 190.223 370.625 194.459C359.475 195.476 348.414 195.455 337.228 195.162C331.899 195.022 326.559 194.657 321.228 194.694C316.052 194.093 294.188 193.902 289.622 194.991C276.442 195.998 255.994 198.498 246.988 209.003C245.032 211.284 243.882 213.815 243.075 216.684C237.198 210.546 230.058 206.158 221.347 205.996C215.817 205.893 210.172 207.182 204.731 208.071L181.308 211.885C173.082 213.616 164.586 214.706 156.275 216.01C156.018 230.702 155.827 242.246 144.429 253.172C134.945 262.263 123.252 268.069 117.211 280.448C115.807 283.326 115.01 286.261 113.896 289.228C105.576 283.855 100.185 277.65 95.2022 269.122Q77.5817 275.192 60.2912 282.147C54.6234 284.412 49.0643 287.006 43.3565 289.157C43.7723 291.98 43.8725 294.526 43.6246 297.373C43.5132 298.653 43.2246 299.963 43.2006 301.242C41.3254 305.76 39.2981 309.619 35.3607 312.679C30.6066 316.373 24.2201 318.276 18.2227 317.49C14.7882 317.039 11.0039 315.548 8.91171 312.668C7.62021 310.891 7.16019 308.697 7.54199 306.541C8.24663 302.563 12.0488 300.629 15.0981 298.573C21.7875 294.063 20.2189 289.315 21.5868 282.532C22.8406 276.314 27.4559 273.633 32.3047 270.368C31.9171 269.417 31.7149 268.408 31.5101 267.404Q31.2261 266.054 30.9753 264.698Q30.7245 263.342 30.5071 261.98Q30.2896 260.618 30.1058 259.251Q29.9219 257.884 29.7716 256.513Q29.6214 255.142 29.5049 253.767Q29.3884 252.393 29.3056 251.016Q29.2229 249.639 29.174 248.261Q29.1252 246.883 29.1102 245.503Q29.0952 244.124 29.1141 242.745Q29.133 241.366 29.1857 239.988Q29.2385 238.609 29.3251 237.233Q29.4117 235.856 29.5321 234.482Q29.6525 233.108 29.8066 231.738Q29.9607 230.367 30.1484 229Q30.3362 227.634 30.5574 226.273Q30.7787 224.911 31.0333 223.556Q31.2879 222.2 31.5758 220.851Q31.8636 219.502 32.1845 218.161Q32.5054 216.819 32.8592 215.486Q33.2129 214.153 33.5993 212.829Q33.9857 211.505 34.4045 210.191Q34.8234 208.877 35.2743 207.573Q35.7253 206.27 36.2081 204.978Q36.691 203.686 37.2054 202.406Q37.7199 201.126 38.2656 199.86Q38.8113 198.593 39.388 197.34Q39.9647 196.087 40.572 194.849Q41.1793 193.61 41.8168 192.387Q42.4543 191.164 43.1217 189.957Q43.7891 188.75 44.4859 187.56Q45.1827 186.369 45.9086 185.196Q46.6344 184.024 47.3889 182.869Q48.1208 181.743 48.8801 180.635Q49.6395 179.527 50.4258 178.439Q51.2122 177.35 52.025 176.281Q52.8379 175.212 53.6767 174.163Q54.5156 173.114 55.38 172.086Q56.2444 171.058 57.1338 170.052Q58.0232 169.045 58.9371 168.061Q59.8509 167.077 60.7887 166.115Q61.7264 165.154 62.6875 164.216Q63.6486 163.278 64.6325 162.363Q65.6164 161.449 66.6224 160.56Q67.6284 159.67 68.656 158.805Q69.6836 157.94 70.7321 157.101Q71.7807 156.262 72.8495 155.448Q73.9183 154.635 75.0068 153.848Q76.0953 153.062 77.2028 152.302Q78.3103 151.542 79.4361 150.81Q80.562 150.077 81.7054 149.373Q82.8489 148.669 84.0094 147.993Q85.1698 147.316 86.3465 146.669Q87.5233 146.022 88.7155 145.403Q89.9078 144.785 91.1149 144.196Q92.322 143.607 93.5432 143.048Q94.7644 142.489 95.999 141.961Q97.2335 141.432 98.4807 140.934Q99.7279 140.435 100.987 139.968Q102.246 139.5 103.516 139.064Q104.786 138.627 106.067 138.222Q107.347 137.817 108.637 137.444Q109.927 137.07 111.226 136.729Q112.525 136.387 113.832 136.077Q115.139 135.767 116.453 135.49Q117.801 135.207 119.155 134.958Q120.51 134.709 121.87 134.493Q123.231 134.277 124.596 134.095Q125.961 133.912 127.33 133.764Q128.699 133.616 130.072 133.501Q131.444 133.386 132.819 133.306Q134.194 133.225 135.571 133.178Q136.947 133.132 138.324 133.119Q139.702 133.106 141.079 133.127Q142.456 133.149 143.832 133.204Q145.208 133.259 146.583 133.349Q147.957 133.438 149.329 133.561Q150.701 133.684 152.069 133.841Q153.437 133.998 154.801 134.189Q156.165 134.379 157.524 134.604Q158.883 134.828 160.236 135.086Q161.589 135.344 162.935 135.635Q164.281 135.926 165.62 136.25Q166.958 136.575 168.288 136.932Q169.619 137.289 170.939 137.679Q172.26 138.069 173.571 138.491Q174.882 138.914 176.182 139.368Q177.482 139.823 178.771 140.31Q180.059 140.796 181.335 141.315Q182.611 141.833 183.874 142.383Q185.137 142.932 186.386 143.513Q187.635 144.094 188.869 144.705Q190.103 145.316 191.322 145.958Q192.541 146.599 193.743 147.271Q194.946 147.942 196.131 148.643Q197.317 149.344 198.485 150.074Q199.652 150.804 200.802 151.563Z"/>
	<path fill="#FEFEFE" d="M112.16 163.357C116.122 162.964 125.68 162.609 129.346 164.089C130.689 164.631 132.665 165.799 133.256 167.148C132.685 168.589 129.711 167.808 128.425 167.661C117.545 166.421 104.049 167.078 94.1923 172.01C80.3184 178.952 72.8538 192.537 68.1098 206.681C66.7227 210.809 65.3804 218.915 63.5595 222.136C62.9153 222.182 62.9205 222.204 62.4032 221.824C62.2197 221.397 62.0896 221.031 62.0567 220.563C61.9398 218.899 62.1426 217.114 62.2448 215.45C63.0344 202.582 68.3668 189.235 76.8998 179.537C86.349 168.798 98.118 164.22 112.16 163.357Z"/>
	<path fill="#FEFEFE" d="M284.885 117.603C290.627 116.894 297.286 118.316 302.636 120.341C318.793 126.456 330.692 140.946 337.63 156.37C339.488 160.501 346.125 178.639 344.189 182.151C343.876 182.719 343.309 182.96 342.697 183.069C339.853 183.574 338.883 178.5 338.204 176.47C331.778 157.256 324.816 139.464 307.05 127.86C298.183 122.757 288.136 119.537 277.818 120.585C261.256 122.268 248.981 133.098 240.574 146.801C238.734 149.801 235.683 156.243 233.731 158.533C233.108 159.264 232.48 159.824 231.491 159.895C231.192 159.639 231.133 159.693 231.091 159.314C230.909 157.678 232.189 155.942 232.902 154.546C236.416 147.666 240.089 140.915 245.148 135.014C255.741 122.658 269.171 118.851 284.885 117.603Z"/>
	<path fill="#3A3A3A" d="M84.0462 241.745C83.7041 238.229 83.6586 234.836 85.7993 231.807C87.6461 229.194 90.2405 227.912 93.1821 226.911C99.7985 224.658 109.421 223.708 116.449 222.563L156.275 216.01C156.018 230.702 155.827 242.246 144.429 253.172C134.945 262.263 123.252 268.069 117.211 280.448C115.807 283.326 115.01 286.261 113.896 289.228C105.576 283.855 100.185 277.65 95.2022 269.122Q77.5817 275.192 60.2912 282.147C54.6234 284.412 49.0643 287.006 43.3565 289.157C43.7723 291.98 43.8725 294.526 43.6246 297.373C43.5132 298.653 43.2246 299.963 43.2006 301.242C41.3254 305.76 39.2981 309.619 35.3607 312.679C30.6066 316.373 24.2201 318.276 18.2227 317.49C14.7882 317.039 11.0039 315.548 8.91171 312.668C7.62021 310.891 7.16019 308.697 7.54199 306.541C8.24663 302.563 12.0488 300.629 15.0981 298.573C21.7875 294.063 20.2189 289.315 21.5868 282.532C22.8406 276.314 27.4559 273.633 32.3047 270.368C36.6998 268.339 40.89 265.043 44.9996 262.431Q59.0989 253.402 74.1178 246.002C77.3025 244.467 80.6443 242.732 84.0462 241.745Z"/>
	<path fill="#F33055" d="M370.625 194.459Q378.368 193.762 385.964 192.11C386.989 208.211 386.238 223.348 378.877 238.151C377.169 241.585 374.987 244.609 373.089 247.906C372.835 253.699 371.902 259.541 370.856 265.239Q369.538 272.597 367.661 279.832Q365.785 287.068 363.36 294.138Q360.935 301.209 357.976 308.073Q355.017 314.937 351.541 321.555C348.678 328.005 343.406 334.25 340.631 340.518C339.071 342.553 337.674 344.701 336.165 346.773C335.209 348.085 333.955 349.444 333.166 350.851C326.997 358.184 321.252 365.954 315.323 373.487C313.146 376.254 310.961 379.95 308.216 382.129C306.353 383.607 301.107 383.78 298.576 384.301C291.069 385.848 277.768 389.86 272.777 395.535C271.625 396.845 270.943 398.458 270.645 400.168C270.534 400.804 270.485 401.439 270.468 402.084Q270.455 402.853 270.523 403.62C270.877 407.509 273.14 410.744 276.072 413.175C280.863 411.046 286.576 407.818 291.728 407.06C291.503 407.983 283.551 425.52 283.236 425.938C281.906 426.248 280.128 424.054 279.166 423.232C262.709 409.163 238.519 406.185 217.876 403.454C212.903 402.796 205.563 402.45 200.938 401.124C201.192 399.232 201.34 397.423 201.1 395.52C200.013 386.904 191.836 376.528 185.1 371.386C181.875 368.924 178.241 367.126 174.263 366.277C158.077 362.824 130.758 371.083 113.729 373.41C102.34 366.379 91.3635 360.291 81.5635 350.925C85.0575 350.232 88.319 349.821 91.1756 347.478C90.7825 344.507 89.9141 341.825 87.6175 339.747C82.068 334.725 73.5007 336.202 66.6899 336.608C57.4702 326.823 48.3632 313.626 43.2006 301.242C43.2246 299.963 43.5132 298.653 43.6246 297.373C43.8725 294.526 43.7723 291.98 43.3565 289.157C49.0643 287.006 54.6234 284.412 60.2912 282.147Q77.5817 275.192 95.2022 269.122C100.185 277.65 105.576 283.855 113.896 289.228C115.01 286.261 115.807 283.326 117.211 280.448C123.252 268.069 134.945 262.263 144.429 253.172C155.827 242.246 156.018 230.702 156.275 216.01C164.586 214.706 173.082 213.616 181.308 211.885L204.731 208.071C210.172 207.182 215.817 205.893 221.347 205.996C230.058 206.158 237.198 210.546 243.075 216.684C243.882 213.815 245.032 211.284 246.988 209.003C255.994 198.498 276.442 195.998 289.622 194.991C294.188 193.902 316.052 194.093 321.228 194.694C326.559 194.657 331.899 195.022 337.228 195.162C348.414 195.455 359.475 195.476 370.625 194.459Z"/>
	<path fill="#3A3A3A" d="M228.369 302.25L229.098 302.348C229.653 302.759 229.775 302.85 230.058 303.472C229.829 303.989 229.677 304.132 229.174 304.439C228.05 305.126 226.632 305.41 225.407 305.893C223.839 306.51 222.272 307.57 220.918 308.571C217.124 311.375 215.132 314.959 212.7 318.875C212.545 318.897 212.391 318.937 212.234 318.941C211.67 318.958 211.27 318.683 210.932 318.281C210.927 317.373 211.289 316.602 211.7 315.806C215.344 308.753 220.95 304.66 228.369 302.25Z"/>
	<path fill="#3A3A3A" d="M232.361 317.272C232.544 317.26 232.826 317.232 233.001 317.265C233.596 317.376 233.751 317.687 234.095 318.133L234.026 318.644C232.886 320.059 230.097 320.606 228.454 321.237C220.983 324.104 217.065 330.795 213.958 337.668C213.783 337.719 213.552 337.797 213.372 337.793C212.746 337.78 212.61 337.581 212.242 337.146C211.99 335.343 213.574 332.385 214.455 330.825C218.376 323.884 224.756 319.379 232.361 317.272Z"/>
	<path fill="#3A3A3A" d="M231.708 285.108C232.536 285.402 233.333 285.881 234.074 286.353C242.383 291.647 250.017 301.986 252.213 311.633Q254.124 310.749 256.152 310.184Q258.181 309.619 260.274 309.389C264.375 308.976 270.345 309.72 273.521 312.586C273.992 313.011 274.197 313.291 274.229 313.918C273.862 314.249 273.443 314.424 272.932 314.42C271.903 314.41 270.352 313.427 269.327 313.062C263.392 310.948 258.543 311.866 252.802 314.033C254.01 318.861 253.99 323.771 253.707 328.702Q253.272 332.693 252.179 336.556C251.44 339.201 249.11 346.683 246.706 348.036C246.103 348.01 246.079 347.988 245.606 347.61C245.201 346.24 248.836 339.24 249.454 337.386Q250.762 333.546 251.18 329.511C252.632 315.917 248.444 303.226 238.774 293.493C236.37 291.073 232.915 289.24 230.833 286.653C230.879 285.892 231.224 285.679 231.708 285.108Z"/>
	<path fill="#FEFEFE" d="M344.321 303.345C344.611 303.461 345.041 303.661 345.134 303.977C345.537 305.332 344.549 308.558 344.059 309.929C338.472 325.575 318.455 331.799 305.461 339.782C300.991 342.528 296.842 345.752 293.287 349.621C287.877 355.508 283.838 362.954 281.655 370.639C281.091 372.624 280.999 375.341 279.966 377.112C279.539 377.843 279.213 377.809 278.463 378.019C277.974 377.674 277.561 377.443 277.403 376.836C276.771 374.401 279.157 367.559 280.036 365.126C286.593 346.988 298.433 339.204 314.726 330.951C321.018 327.764 327.298 324.607 332.69 319.979C338.897 314.653 340.221 310.073 344.184 303.566L344.321 303.345Z"/>
	<path fill="#3A3A3A" d="M370.625 194.459Q378.368 193.762 385.964 192.11C386.989 208.211 386.238 223.348 378.877 238.151C377.169 241.585 374.987 244.609 373.089 247.906C373.036 247.954 372.983 248.001 372.93 248.05C369.688 251.072 367.164 254.736 363.769 257.695Q362.399 258.898 360.976 260.036Q359.552 261.174 358.078 262.245Q356.603 263.317 355.081 264.319Q353.558 265.321 351.991 266.251Q350.424 267.182 348.815 268.04Q347.207 268.897 345.561 269.679Q343.914 270.461 342.234 271.167Q340.553 271.872 338.842 272.499Q337.13 273.126 335.392 273.674Q333.653 274.221 331.891 274.688Q330.13 275.154 328.348 275.539Q326.566 275.924 324.769 276.226Q322.971 276.528 321.162 276.746Q319.353 276.965 317.535 277.1Q315.717 277.235 313.895 277.286Q312.073 277.337 310.251 277.304C304.881 277.162 291.466 275.754 287.318 272.953C282.454 272.378 267.6 263.922 264.068 259.995C267.927 256.849 272.043 253.893 275.422 250.216C287.235 237.36 284.414 226.398 285.859 210.833C286.375 205.27 287.638 200.205 289.622 194.991C294.188 193.902 316.052 194.093 321.228 194.694C326.559 194.657 331.899 195.022 337.228 195.162C348.414 195.455 359.475 195.476 370.625 194.459Z"/>
	<path fill="#FEFEFE" d="M377.654 221.173C377.695 221.31 377.76 221.442 377.779 221.584C377.902 222.502 377.048 223.902 376.611 224.704C375.055 227.558 372.771 230.273 370.731 232.796C363.216 242.091 356.349 248.71 345.775 254.532C343.212 255.944 340.426 257.457 337.624 258.303C337.597 258.173 337.603 258.037 337.601 257.904C337.584 257.027 341.461 254.931 342.312 254.393C351.823 248.379 361.444 240.821 368.863 232.34C371.991 228.764 374.348 224.617 377.654 221.173Z"/>
	<path fill="#FEFEFE" d="M289.622 194.991C294.188 193.902 316.052 194.093 321.228 194.694C314.655 200.243 311.18 204.325 310.447 213.119C309.917 219.474 310.157 225.878 309.476 232.233C307.751 248.343 299.427 262.439 287.318 272.953C282.454 272.378 267.6 263.922 264.068 259.995C267.927 256.849 272.043 253.893 275.422 250.216C287.235 237.36 284.414 226.398 285.859 210.833C286.375 205.27 287.638 200.205 289.622 194.991Z"/>
	<path fill="#3A3A3A" d="M243.075 216.684C243.882 213.815 245.032 211.284 246.988 209.003C255.994 198.498 276.442 195.998 289.622 194.991C287.638 200.205 286.375 205.27 285.859 210.833C284.414 226.398 287.235 237.36 275.422 250.216C272.043 253.893 267.927 256.849 264.068 259.995C259.856 258.041 252.038 247.891 249.072 243.885C237.793 249.808 234.03 260.732 226.534 270.186C205.435 296.794 169.454 303.13 137.634 297.546C130.112 296.708 120.349 292.849 113.896 289.228C115.01 286.261 115.807 283.326 117.211 280.448C123.252 268.069 134.945 262.263 144.429 253.172C155.827 242.246 156.018 230.702 156.275 216.01C164.586 214.706 173.082 213.616 181.308 211.885L204.731 208.071C210.172 207.182 215.817 205.893 221.347 205.996C230.058 206.158 237.198 210.546 243.075 216.684Z"/>
	<path fill="#FEFEFE" d="M220.764 236.388C220.836 236.402 220.909 236.413 220.98 236.431C221.388 236.533 222.011 236.745 222.201 237.143C223.058 238.939 220.456 244.166 219.785 245.939C213.899 261.47 203.845 267.931 190.754 276.483C186.851 279.033 183.106 281.878 178.84 283.803L177.902 283.898L177.535 283.58C177.509 283.07 177.562 282.681 177.749 282.209C179.904 276.787 193.337 270.074 198.505 266.354Q203.026 263.096 206.856 259.048C211.01 254.715 214.751 249.643 217.229 244.155C218.232 241.933 219.049 238.745 220.459 236.793C220.558 236.656 220.662 236.523 220.764 236.388Z"/>
	<path fill="#FEFEFE" d="M156.275 216.01C164.586 214.706 173.082 213.616 181.308 211.885C180.894 219.198 181.027 226.681 180.144 233.942Q179.969 235.331 179.732 236.71Q179.495 238.089 179.196 239.456Q178.897 240.824 178.537 242.176Q178.177 243.528 177.756 244.863Q177.336 246.198 176.856 247.513Q176.376 248.827 175.837 250.119Q175.298 251.41 174.702 252.677Q174.106 253.943 173.453 255.181Q172.801 256.419 172.093 257.626Q171.385 258.834 170.624 260.008Q169.863 261.183 169.05 262.322Q168.237 263.461 167.373 264.562Q166.51 265.663 165.598 266.725Q164.685 267.786 163.726 268.805Q162.767 269.825 161.764 270.8Q160.76 271.775 159.713 272.704C156.465 275.587 152.948 278.189 149.538 280.876C143.915 285.308 138.124 289.822 137.634 297.546C130.112 296.708 120.349 292.849 113.896 289.228C115.01 286.261 115.807 283.326 117.211 280.448C123.252 268.069 134.945 262.263 144.429 253.172C155.827 242.246 156.018 230.702 156.275 216.01Z"/>
</svg>
